<?xml version="1.0" standalone="no"?>
<!DOCTYPE svg PUBLIC "-//W3C//DTD SVG 20010904//EN"
 "http://www.w3.org/TR/2001/REC-SVG-20010904/DTD/svg10.dtd">
<svg version="1.0" xmlns="http://www.w3.org/2000/svg"
 width="626.000000pt" height="626.000000pt" viewBox="0 0 626.000000 626.000000"
 preserveAspectRatio="xMidYMid meet">
<metadata>
Created by potrace 1.14, written by Peter Selinger 2001-2017
</metadata>
<g transform="translate(0.000000,626.000000) scale(0.100000,-0.100000)"
fill="#000000" stroke="none">
<path d="M3045 6248 c-81 -29 -164 -113 -185 -186 -14 -52 -13 -693 1 -742 19
-64 78 -132 141 -163 45 -23 71 -29 125 -29 113 -1 192 44 251 142 l27 45 0
375 c0 340 -2 378 -18 407 -53 97 -158 164 -257 162 -30 0 -68 -5 -85 -11z"/>
<path d="M1063 5420 c-181 -37 -281 -237 -199 -399 42 -82 461 -500 536 -535
237 -110 484 134 375 371 -20 46 -67 98 -254 284 -184 185 -239 234 -282 253
-65 29 -120 37 -176 26z"/>
<path d="M5087 5419 c-81 -19 -124 -54 -349 -278 -187 -186 -231 -236 -253
-283 -86 -188 48 -398 255 -398 115 0 144 20 402 278 191 192 231 237 254 287
49 107 30 231 -49 314 -59 62 -179 99 -260 80z"/>
<path d="M2995 4829 c-588 -43 -1120 -400 -1386 -930 -125 -249 -181 -489
-181 -772 1 -351 94 -656 288 -947 250 -375 633 -629 1087 -720 134 -27 171
-31 327 -31 157 0 192 4 329 31 305 62 577 195 797 391 373 332 574 779 576
1276 0 289 -57 527 -187 780 -80 156 -133 234 -237 353 -349 396 -878 609
-1413 569z m278 -570 c358 -53 643 -239 830 -540 122 -198 185 -467 159 -692
-32 -283 -136 -503 -331 -697 -282 -281 -646 -390 -1036 -310 -474 98 -825
480 -895 975 -42 300 61 635 270 877 249 289 644 441 1003 387z"/>
<path d="M186 3395 c-21 -7 -55 -27 -75 -43 -162 -130 -143 -363 39 -470 l45
-27 352 -3 c222 -2 366 1 390 7 21 6 61 28 88 48 145 110 145 337 0 446 -27
20 -66 42 -85 47 -57 16 -707 12 -754 -5z"/>
<path d="M5315 3399 c-57 -17 -128 -81 -159 -142 -23 -47 -29 -71 -29 -125 0
-112 46 -192 143 -250 l45 -27 375 0 375 0 45 27 c99 58 145 137 145 248 0
111 -46 190 -145 248 l-45 27 -360 2 c-198 1 -373 -2 -390 -8z"/>
<path d="M1473 1799 c-83 -15 -125 -48 -355 -278 -189 -189 -232 -237 -254
-285 -110 -240 131 -482 370 -373 49 23 96 65 287 255 259 258 279 287 279
402 0 113 -62 210 -164 255 -62 28 -107 34 -163 24z"/>
<path d="M4625 1776 c-103 -48 -165 -144 -165 -256 0 -113 19 -141 278 -401
192 -192 239 -233 288 -256 238 -109 480 133 371 371 -22 48 -65 96 -255 287
-259 259 -288 279 -402 279 -47 0 -79 -7 -115 -24z"/>
<path d="M3073 1130 c-85 -17 -143 -61 -194 -145 l-24 -40 0 -375 0 -375 27
-45 c58 -99 137 -145 248 -145 111 0 190 46 248 145 l27 45 0 375 0 375 -27
45 c-15 25 -40 58 -55 72 -57 55 -166 84 -250 68z"/>
</g>
</svg>
