<?xml version="1.0" standalone="no"?>
<!DOCTYPE svg PUBLIC "-//W3C//DTD SVG 20010904//EN"
 "http://www.w3.org/TR/2001/REC-SVG-20010904/DTD/svg10.dtd">
<svg version="1.0" xmlns="http://www.w3.org/2000/svg"
 width="512.000000pt" height="512.000000pt" viewBox="0 0 512.000000 512.000000"
 preserveAspectRatio="xMidYMid meet">
<metadata>
Created by potrace 1.14, written by Peter Selinger 2001-2017
</metadata>
<g transform="translate(0.000000,512.000000) scale(0.100000,-0.100000)"
fill="#000000" stroke="none">
<path d="M1092 5109 c-45 -13 -108 -79 -121 -126 -7 -25 -11 -280 -11 -750 l0
-712 -342 -3 -343 -3 -61 -28 c-77 -36 -145 -104 -181 -182 -28 -60 -28 -61
-28 -265 0 -205 0 -205 29 -267 45 -98 136 -173 243 -202 l43 -12 2 -982 3
-982 28 -60 c36 -78 104 -146 181 -182 l61 -28 663 -3 662 -3 0 -159 0 -160
475 0 c261 0 475 1 475 3 0 2 -38 36 -84 75 -259 220 -447 549 -518 904 -32
161 -32 434 0 595 74 369 260 689 536 921 220 184 457 298 739 354 161 32 433
32 595 0 211 -42 411 -124 581 -236 83 -55 85 -56 125 -45 108 29 196 102 243
204 28 60 28 61 28 265 0 204 0 205 -28 266 -36 77 -104 145 -182 181 l-60 28
-342 3 -343 3 -2 733 -3 732 -27 41 c-15 22 -44 51 -65 64 l-38 24 -345 0
-345 0 -38 -24 c-21 -13 -50 -42 -65 -64 l-27 -41 -3 -733 -3 -733 -639 0
-639 0 -3 733 -3 732 -24 38 c-13 21 -42 50 -64 65 l-40 27 -331 2 c-192 1
-345 -2 -364 -8z m508 -949 l0 -640 -160 0 -160 0 0 640 0 640 160 0 160 0 0
-640z m2240 0 l0 -640 -160 0 -160 0 0 640 0 640 160 0 160 0 0 -640z"/>
<path d="M3710 2554 c-14 -2 -56 -9 -95 -15 -242 -39 -494 -171 -679 -357
-182 -183 -297 -397 -352 -654 -25 -116 -25 -380 0 -496 56 -263 165 -463 355
-653 188 -188 392 -299 651 -355 119 -26 381 -26 500 0 512 110 896 494 1006
1006 26 119 26 381 0 500 -96 447 -404 802 -826 955 -130 46 -234 65 -390 70
-80 2 -156 2 -170 -1z m361 -343 c176 -46 317 -127 445 -255 173 -172 267
-381 281 -622 33 -569 -442 -1044 -1011 -1011 -94 6 -251 38 -268 55 -4 4 201
234 456 512 l462 505 -237 5 -236 5 173 275 173 275 -336 3 c-185 1 -340 -1
-344 -5 -4 -5 -74 -201 -157 -438 l-150 -430 197 -5 198 -5 -152 -323 c-83
-178 -156 -323 -161 -323 -35 4 -153 90 -234 171 -139 137 -220 280 -267 466
-24 95 -24 333 0 428 45 178 125 322 252 451 100 102 150 139 263 195 155 76
273 101 452 96 81 -3 152 -11 201 -25z"/>
</g>
</svg>
